<?xml version="1.0" standalone="no"?>
<!DOCTYPE svg PUBLIC "-//W3C//DTD SVG 20010904//EN"
 "http://www.w3.org/TR/2001/REC-SVG-20010904/DTD/svg10.dtd">
<svg version="1.0" xmlns="http://www.w3.org/2000/svg"
 width="512.000000pt" height="512.000000pt" viewBox="0 0 512.000000 512.000000"
 preserveAspectRatio="xMidYMid meet">

<g transform="translate(0.000000,512.000000) scale(0.100000,-0.100000)"
fill="#FFFFFF" stroke="none">
<path d="M2390 5114 c-19 -2 -78 -9 -130 -14 -542 -59 -1076 -313 -1479 -705
-404 -392 -660 -889 -753 -1456 -31 -193 -31 -553 0 -754 83 -533 317 -1010
681 -1387 424 -441 934 -697 1551 -779 122 -17 478 -17 600 0 613 82 1125 338
1545 772 371 384 613 881 692 1424 21 148 24 525 5 660 -70 490 -262 938 -557
1300 -89 110 -272 291 -380 378 -357 287 -787 473 -1255 542 -101 15 -447 28
-520 19z m503 -189 c552 -86 1023 -329 1392 -717 l98 -103 -729 -3 c-756 -3
-795 -2 -939 39 -89 25 -116 36 -305 125 -280 131 -394 159 -660 159 -263 0
-380 -28 -650 -154 -201 -94 -287 -127 -311 -119 -16 5 212 221 322 305 359
273 770 434 1234 483 113 12 431 3 548 -15z m-939 -679 c129 -25 216 -56 388
-137 194 -92 310 -133 451 -160 96 -18 153 -19 907 -19 443 0 810 -4 816 -8
16 -10 95 -136 149 -235 66 -123 138 -297 178 -432 33 -110 69 -257 63 -262
-1 -1 -37 13 -81 32 -108 47 -218 112 -331 196 -342 254 -645 358 -1041 359
-247 0 -468 -47 -688 -148 -120 -55 -212 -110 -366 -223 -237 -174 -485 -272
-758 -299 -59 -6 -389 -10 -772 -10 -613 0 -669 1 -669 16 0 43 56 279 91 387
88 266 282 629 342 641 12 2 63 12 112 21 127 23 246 65 425 150 239 112 358
143 572 144 81 1 167 -5 212 -13z m1791 -860 c121 -27 210 -55 310 -98 113
-50 179 -89 330 -198 182 -132 287 -189 465 -255 l85 -32 8 -69 c10 -90 0
-361 -18 -493 -8 -58 -15 -106 -15 -108 0 -8 -300 -2 -388 8 -120 13 -258 57
-354 114 -40 23 -116 81 -168 127 -132 117 -221 174 -334 215 -138 49 -333 59
-478 24 -155 -37 -271 -100 -404 -221 -177 -160 -328 -233 -539 -259 -81 -10
-2035 -17 -2035 -8 0 2 -6 50 -14 108 -20 142 -30 345 -21 424 l7 65 691 0
c386 0 734 5 787 10 315 33 585 141 860 345 249 184 473 278 755 319 75 11
393 -2 470 -18z m-191 -936 c111 -28 200 -80 326 -190 130 -113 236 -180 358
-226 136 -51 225 -65 440 -71 105 -3 192 -9 192 -12 0 -14 -49 -162 -80 -242
l-32 -86 -157 -6 c-179 -6 -270 -25 -407 -85 -111 -48 -216 -116 -308 -202
-39 -36 -93 -81 -119 -99 -150 -103 -346 -143 -519 -106 -142 30 -233 81 -382
213 -155 139 -318 222 -514 262 -97 19 -132 20 -1044 20 l-945 0 -33 88 c-32
85 -80 230 -80 245 0 4 431 7 958 7 585 0 992 4 1046 10 226 26 417 108 577
246 148 128 185 156 255 189 39 19 97 41 130 49 89 22 246 20 338 -4z m-1252
-1014 c193 -37 308 -98 488 -257 129 -114 214 -163 357 -205 190 -56 408 -39
588 45 99 46 160 89 260 180 169 155 355 236 573 248 56 3 102 3 102 0 0 -11
-71 -130 -135 -226 -275 -414 -721 -755 -1199 -918 -112 -38 -303 -87 -384
-98 l-54 -7 26 38 c106 161 67 356 -96 479 -122 91 -263 135 -438 135 -259 0
-482 -112 -566 -285 -24 -51 -29 -71 -28 -135 1 -41 7 -88 13 -104 6 -16 10
-31 8 -33 -5 -5 -163 56 -261 101 -437 200 -834 566 -1070 984 -20 35 -36 66
-36 68 0 2 400 4 889 4 722 0 903 -3 963 -14z m236 -771 c117 -28 220 -95 259
-169 19 -37 19 -106 -1 -143 -20 -39 -75 -87 -134 -117 -112 -56 -189 -67
-346 -51 -102 11 -133 18 -189 46 -256 125 -196 358 113 434 74 18 221 18 298
0z"/>
<path d="M1603 3991 c-147 -51 -233 -171 -233 -327 0 -195 167 -347 363 -332
81 7 144 35 205 92 143 134 143 360 -1 493 -53 49 -76 62 -142 79 -68 19 -130
17 -192 -5z m159 -161 c76 -22 132 -124 109 -200 -60 -201 -346 -153 -329 55
5 65 37 111 92 136 47 21 76 23 128 9z"/>
<path d="M3258 2289 c-74 -17 -177 -78 -239 -141 -205 -208 -197 -531 19 -729
202 -187 505 -182 700 11 201 200 204 514 7 715 -66 67 -143 115 -225 139 -58
17 -199 20 -262 5z m228 -174 c222 -68 307 -352 160 -536 -72 -90 -208 -142
-318 -121 -259 48 -372 338 -213 546 31 41 114 98 165 113 52 16 150 15 206
-2z"/>
</g>
</svg>
